<?xml version="1.0" encoding="utf-8"?>
<!-- Generator: Adobe Illustrator 23.0.3, SVG Export Plug-In . SVG Version: 6.00 Build 0)  -->
<svg version="1.1" id="Layer_1" xmlns="http://www.w3.org/2000/svg" xmlns:xlink="http://www.w3.org/1999/xlink" x="0px" y="0px"
	 viewBox="0 0 490.7 342.5" style="enable-background:new 0 0 490.7 342.5;" xml:space="preserve">
<style type="text/css">
	.st0{fill:#555555;}
</style>
<path class="st0" d="M245.4,200.5c-39.7,0-79.4-35.8-155.9-107.4C64.9,70.3,35.1,42.3,0,10.8v275.1c0,31.1,25.2,56.5,56.3,56.5
	h378.2c31,0,56.3-25.4,56.3-56.5l0-275.1c-35.1,31.5-64.9,59.4-89.4,82.3C324.8,164.8,285.1,200.5,245.4,200.5L245.4,200.5z"/>
<path class="st0" d="M245.4,183.2c34,0,70.8-34.4,143.9-102.8c24-22.5,53.1-49.7,87.2-80.4H14.2c34.1,30.7,63.2,57.9,87.2,80.4
	C174.7,148.9,211.3,183.2,245.4,183.2L245.4,183.2z"/>
</svg>
