<?xml version="1.0" encoding="utf-8"?>
<!-- Generator: Adobe Illustrator 23.0.3, SVG Export Plug-In . SVG Version: 6.00 Build 0)  -->
<svg version="1.1" id="Layer_1" xmlns="http://www.w3.org/2000/svg" xmlns:xlink="http://www.w3.org/1999/xlink" x="0px" y="0px"
	 viewBox="0 0 504 503.8" style="enable-background:new 0 0 504 503.8;" xml:space="preserve">
<style type="text/css">
	.st0{fill:#555555;}
</style>
<path class="st0" d="M348.6,240.8C321,262.5,287,274.2,252,274.2s-69-11.8-96.6-33.4C63.9,274.3,0,352.5,0,433.8
	c0,62.6,201.6,70,252,70s252-7.4,252-70C504,352.5,440.1,274.3,348.6,240.8L348.6,240.8z"/>
<path class="st0" d="M335.2,34.3c45.9,45.9,45.9,120.4,0,166.3c-45.9,45.9-120.4,45.9-166.3,0c-45.9-45.9-45.9-120.4,0-166.3
	C214.8-11.7,289.2-11.7,335.2,34.3"/>
</svg>
