<svg id="Layer_1" data-name="Layer 1" xmlns="http://www.w3.org/2000/svg" viewBox="0 0 312.71 312.11"><defs><style>.cls-1{fill:#fefefe;}</style></defs><title>portfolio</title><path d="M566.72,23.77V290.06c-.85,2.72-.52,5.73-1.9,8.3-4,7.5-9.5,13.1-18.62,13.81-.86.07-1.84-.17-2.64.44H277.27c-3.34-1-6.94-.74-10.07-2.67-9-5.55-12.86-13.54-12.84-24q.18-87.87,0-175.72,0-40.67,0-81.32c0-3.29.38-6.53.7-9.79.62-6.3,9.69-17.21,18.62-17.84a15.46,15.46,0,0,0,4.16-.62h266.3c3.53,1.08,7.38.66,10.66,3,6.66,4.71,11.45,10.42,11.58,19A1.59,1.59,0,0,0,566.72,23.77Z" transform="translate(-254.05 -0.54)"/><path class="cls-1" d="M277.87.61c-.58.94-1.64.63-2.46.86A27.35,27.35,0,0,0,254.74,28c-.09,11.87,0,23.75,0,35.62v218.6c0,16,6.47,24.88,21.59,29.78a4.36,4.36,0,0,1,1,.62H254.11q0-154.63-.06-309.26c0-2.28.51-2.86,2.8-2.8C263.86.72,270.87.61,277.87.61Z" transform="translate(-254.05 -0.54)"/><path class="cls-1" d="M543.56,312.61c1.6-.52,3.22-1,4.78-1.56a27.24,27.24,0,0,0,17.28-18.28c.28-.92.13-2.06,1.1-2.71,0,7-.05,14,0,21,0,1.31-.25,1.57-1.57,1.56C558,312.57,550.77,312.61,543.56,312.61Z" transform="translate(-254.05 -0.54)"/><path class="cls-1" d="M566.72,23.77c-1-.59-.59-1.65-.83-2.48-2.94-10-9.3-16.63-19.33-19.7-.8-.24-1.89,0-2.39-1,7,0,13.93.05,20.89,0,1.43,0,1.72.28,1.7,1.71C566.67,9.44,566.72,16.6,566.72,23.77Z" transform="translate(-254.05 -0.54)"/><path class="cls-1" d="M310.17,156.38V85.12c0-7.32,3.48-10.77,10.84-10.77,17.66,0,35.33-.06,53,0a45.69,45.69,0,0,1,45.84,47.09c-.5,23.83-20.55,43.92-44.38,44.24-14.62.2-29.24.11-43.86,0-2.46,0-3.23.51-3.21,3.12.12,20.09.09,40.19.05,60.29,0,7.27-6.7,11.84-12.91,8.89-3.92-1.86-5.39-5.18-5.38-9.43Q310.23,192.47,310.17,156.38Z" transform="translate(-254.05 -0.54)"/><path class="cls-1" d="M474.7,189.83q0,19.33,0,38.67c0,6.19-3.69,10.35-9.11,10.36s-9.16-4.14-9.16-10.3c0-26,0-52,.05-78,0-2.5-.54-3.46-3.14-3.18a40.08,40.08,0,0,1-6.39,0,9.12,9.12,0,0,1,0-18.22,68.37,68.37,0,0,1,7.3,0c1.8.11,2.2-.59,2.18-2.26-.07-8-.05-16,0-24.06,0-16.76,11.79-28.51,28.57-28.55,5.48,0,11,0,16.44,0,5.68,0,9.76,3.83,9.81,9.05s-4.07,9.18-9.94,9.22c-5.58,0-11.17,0-16.75,0-6.08,0-9.82,3.81-9.85,9.92,0,8,.08,16-.06,24.06,0,2.24.73,2.65,2.77,2.62,7.91-.11,15.83-.06,23.75,0,5.93,0,10.05,3.76,10.08,9.08s-4.09,9.17-10,9.19c-7.92,0-15.84.09-23.75-.05-2.24,0-2.91.5-2.89,2.83C474.77,163.43,474.7,176.63,474.7,189.83Z" transform="translate(-254.05 -0.54)"/><path d="M328.45,120.18c0-8.32.08-16.64-.05-25,0-2.2.67-2.66,2.74-2.65,14.2.09,28.4,0,42.6.06,15.63.08,27.83,12.16,27.83,27.42s-12.21,27.32-27.87,27.39c-14.2.07-28.4,0-42.6.07-2.13,0-2.73-.55-2.7-2.69C328.53,136.61,328.45,128.4,328.45,120.18Z" transform="translate(-254.05 -0.54)"/></svg>