<?xml version="1.0" encoding="utf-8"?>
<!-- Generator: Adobe Illustrator 23.0.3, SVG Export Plug-In . SVG Version: 6.00 Build 0)  -->
<svg version="1.1" id="Layer_1" xmlns="http://www.w3.org/2000/svg" xmlns:xlink="http://www.w3.org/1999/xlink" x="0px" y="0px"
	 viewBox="0 0 532 417.2" style="enable-background:new 0 0 532 417.2;" xml:space="preserve">
<style type="text/css">
	.st0{fill:#555555;}
</style>
<path class="st0" d="M227.9,299l-19,1.7h-2.8c-12.3,0-23.5-6.2-30.2-16.2c-7.3-10.1-8.4-23-4.5-34.2l6.7-17.9
	c11.2-29.7,29.7-54.9,54.3-73.4L387.5,42c-2.2-9.5-7.3-18.5-14.6-25.8C362.3,5.6,348.3,0,333.2,0h-177v107
	c0,27.4-22.4,49.3-49.3,49.3l-107,0v205c0,30.8,25.2,56,56,56h277.2c30.8,0,56-25.2,56-56V209.4l-75.6,57.7
	C289,285.6,259.3,296.8,227.9,299L227.9,299z"/>
<path class="st0" d="M124.3,107.5V6.2c-5.6,2.8-10.6,6.2-15.1,10.6l-93,93c-3.9,4.5-7.3,9.5-10.1,15.1H107
	C116.5,124.9,124.3,117,124.3,107.5L124.3,107.5z"/>
<path class="st0" d="M194.9,259.3c-2.8,7.8,3.9,16.2,11.8,15.7l19-1.7c21.8-1.7,42-8.4,59.9-19l-49.3-65
	c-15.1,14.6-27.4,31.9-34.7,52.1L194.9,259.3z"/>
<path class="st0" d="M256.6,173.1l161-121.3l50.6,67.1l-161,121.3L256.6,173.1z"/>
<path class="st0" d="M528.6,52.6l-30.8-40.9c-5.6-7.3-15.1-9-21.3-3.9L437.9,37l50.4,66.6L527,74.5
	C533.1,69.4,533.7,59.9,528.6,52.6L528.6,52.6z"/>
</svg>
